<svg id="Layer_1" data-name="Layer 1" xmlns="http://www.w3.org/2000/svg" viewBox="0 0 1480 800"><title>final</title><path d="M1220.8,12.7A40.6,40.6,0,0,0,1192.2.6L288.3,0h-.1a41,41,0,0,0-40.6,40.7l-.5,718a41.3,41.3,0,0,0,40.7,40.7l903.9.6h.1a41.2,41.2,0,0,0,40.6-40.7l.5-718A40.6,40.6,0,0,0,1220.8,12.7Zm-27.2,746.6c0,.6-1.2,1.9-1.8,1.9v0l-903.9-.6a2.7,2.7,0,0,1-1.8-1.9l.3-611.3H1194ZM1177.5,73.6a23,23,0,0,1-23,23l-636.3-.4a23,23,0,0,1,0-46l636.3.4A23,23,0,0,1,1177.5,73.6Zm-727.4-.9a15.6,15.6,0,1,1-15.6-15.6A15.6,15.6,0,0,1,450.1,72.7Zm-46,0a15.6,15.6,0,1,1-15.6-15.6A15.5,15.5,0,0,1,404.1,72.7ZM342.5,57.1a15.6,15.6,0,1,1-15.6,15.5A15.5,15.5,0,0,1,342.5,57.1Z" style="fill:#707070"/><rect x="482.7" y="392.5" width="514.6" height="139.74" rx="8.9" style="fill:none;stroke:#707070;stroke-miterlimit:10;stroke-width:15.587448069712906px"/><rect x="482.7" y="392.5" width="197.2" height="139.74" rx="5.5" style="fill:#707070"/><path d="M639.6,322.6H612.9V280.4h7.5v35.9h19.2Z" style="fill:#707070"/><path d="M642.4,307.1c0-10,6-16.2,15.1-16.2s15,6.2,15,16.2-5.9,16.2-15,16.2S642.4,317.2,642.4,307.1Zm22.7,0c0-6.6-3-10.3-7.6-10.3s-7.6,3.7-7.6,10.3,2.9,10.4,7.6,10.4S665.1,313.7,665.1,307.1Z" style="fill:#707070"/><path d="M676,313.8c0-5.5,4.2-8.8,11.8-9.3l8.2-.5v-2.2c0-3.3-2.2-5.1-5.8-5.1s-5.7,1.6-6.2,4.2h-6.7c.3-5.8,5.2-10,13.2-10s12.7,4.1,12.7,10.4v21.3h-7.1v-4.9H696a10.9,10.9,0,0,1-9.7,5.4C680.3,323.1,676,319.4,676,313.8Zm20-2.7v-2.3l-7.2.4c-3.5.2-5.5,1.8-5.5,4.3s2.1,4.1,5.2,4.1S696,314.9,696,311.1Z" style="fill:#707070"/><path d="M707.7,307.1c0-9.8,5.1-16,12.9-16a10.2,10.2,0,0,1,9.6,5.7h.2V280.4h7.3v42.2h-7.1v-5.3h-.2c-1.6,3.5-5.2,5.8-9.8,5.8C712.8,323.1,707.7,317,707.7,307.1Zm7.5,0c0,6.2,2.9,10.1,7.6,10.1s7.6-3.9,7.6-10.1-3-10-7.6-10S715.2,301,715.2,307.1Z" style="fill:#707070"/><path d="M743.6,283a4,4,0,0,1,4-4,4,4,0,1,1,0,7.9A4,4,0,0,1,743.6,283Zm.4,8.6h7.3v31H744Z" style="fill:#707070"/><path d="M757.4,291.6h7v5.3h.2c1.6-3.7,5-5.9,9.7-5.9,6.9,0,10.8,4.4,10.8,11.6v20h-7.3V304c0-4.3-2.1-6.8-6.2-6.8s-6.9,3-6.9,7.5v17.9h-7.3Z" style="fill:#707070"/><path d="M790.7,325h7.2c.8,2.4,3.5,4,6.9,4s7.5-2.7,7.5-6.6v-5.3h-.2c-1.6,3.4-5.2,5.6-9.7,5.6-7.7,0-12.8-6-12.8-15.7s5-15.9,12.9-15.9a10.7,10.7,0,0,1,9.8,5.8h.2v-5.3h7.1v30.6c0,7.4-5.9,12.2-15,12.2S791.4,330.4,790.7,325Zm21.6-18c0-6-3-9.9-7.7-9.9s-7.5,3.8-7.5,9.9,2.9,9.9,7.5,9.9S812.3,313.1,812.3,307Z" style="fill:#707070"/><path d="M826.4,318.8a4.2,4.2,0,0,1,4.2-4.3,4.3,4.3,0,1,1-4.2,4.3Z" style="fill:#707070"/><path d="M842.6,318.8a4.2,4.2,0,0,1,4.2-4.3,4.3,4.3,0,0,1,0,8.5A4.2,4.2,0,0,1,842.6,318.8Z" style="fill:#707070"/><path d="M858.7,318.8a4.2,4.2,0,0,1,4.2-4.3,4.3,4.3,0,1,1-4.2,4.3Z" style="fill:#707070"/></svg>